<mxfile host="app.diagrams.net" agent="Mozilla/5.0 (X11; Linux x86_64; rv:137.0) Gecko/20100101 Firefox/137.0" version="26.2.12">
  <diagram id="C5RBs43oDa-KdzZeNtuy" name="Page-1">
    <mxGraphModel dx="1054" dy="1751" grid="1" gridSize="10" guides="1" tooltips="1" connect="1" arrows="1" fold="1" page="1" pageScale="1" pageWidth="827" pageHeight="1169" math="0" shadow="0">
      <root>
        <mxCell id="WIyWlLk6GJQsqaUBKTNV-0" />
        <mxCell id="WIyWlLk6GJQsqaUBKTNV-1" parent="WIyWlLk6GJQsqaUBKTNV-0" />
        <mxCell id="WIyWlLk6GJQsqaUBKTNV-2" value="" style="rounded=0;html=1;jettySize=auto;orthogonalLoop=1;fontSize=11;endArrow=block;endFill=0;endSize=8;strokeWidth=1;shadow=0;labelBackgroundColor=none;edgeStyle=orthogonalEdgeStyle;" parent="WIyWlLk6GJQsqaUBKTNV-1" source="WIyWlLk6GJQsqaUBKTNV-3" target="WIyWlLk6GJQsqaUBKTNV-6" edge="1">
          <mxGeometry relative="1" as="geometry" />
        </mxCell>
        <mxCell id="WIyWlLk6GJQsqaUBKTNV-3" value="El usuario entra a la página de autorización" style="rounded=1;whiteSpace=wrap;html=1;fontSize=12;glass=0;strokeWidth=1;shadow=0;" parent="WIyWlLk6GJQsqaUBKTNV-1" vertex="1">
          <mxGeometry x="122.5" y="50" width="150" height="40" as="geometry" />
        </mxCell>
        <mxCell id="WIyWlLk6GJQsqaUBKTNV-4" value="Si" style="rounded=0;html=1;jettySize=auto;orthogonalLoop=1;fontSize=11;endArrow=block;endFill=0;endSize=8;strokeWidth=1;shadow=0;labelBackgroundColor=none;edgeStyle=orthogonalEdgeStyle;entryX=0.5;entryY=0;entryDx=0;entryDy=0;" parent="WIyWlLk6GJQsqaUBKTNV-1" source="WIyWlLk6GJQsqaUBKTNV-6" target="q0biFwtXOT-HWgumpy52-45" edge="1">
          <mxGeometry y="20" relative="1" as="geometry">
            <mxPoint as="offset" />
            <mxPoint x="197.5" y="310" as="targetPoint" />
          </mxGeometry>
        </mxCell>
        <mxCell id="WIyWlLk6GJQsqaUBKTNV-5" value="No" style="edgeStyle=orthogonalEdgeStyle;rounded=0;html=1;jettySize=auto;orthogonalLoop=1;fontSize=11;endArrow=block;endFill=0;endSize=8;strokeWidth=1;shadow=0;labelBackgroundColor=none;" parent="WIyWlLk6GJQsqaUBKTNV-1" source="WIyWlLk6GJQsqaUBKTNV-6" target="WIyWlLk6GJQsqaUBKTNV-7" edge="1">
          <mxGeometry y="10" relative="1" as="geometry">
            <mxPoint as="offset" />
            <Array as="points">
              <mxPoint x="300" y="220" />
              <mxPoint x="300" y="220" />
            </Array>
          </mxGeometry>
        </mxCell>
        <mxCell id="WIyWlLk6GJQsqaUBKTNV-6" value="La persona tiene usuario" style="rhombus;whiteSpace=wrap;html=1;shadow=0;fontFamily=Helvetica;fontSize=12;align=center;strokeWidth=1;spacing=6;spacingTop=-4;" parent="WIyWlLk6GJQsqaUBKTNV-1" vertex="1">
          <mxGeometry x="110" y="170" width="175" height="80" as="geometry" />
        </mxCell>
        <mxCell id="q0biFwtXOT-HWgumpy52-1" value="" style="edgeStyle=orthogonalEdgeStyle;rounded=0;orthogonalLoop=1;jettySize=auto;html=1;entryX=0.506;entryY=1.021;entryDx=0;entryDy=0;entryPerimeter=0;" edge="1" parent="WIyWlLk6GJQsqaUBKTNV-1" source="WIyWlLk6GJQsqaUBKTNV-7" target="q0biFwtXOT-HWgumpy52-40">
          <mxGeometry relative="1" as="geometry">
            <mxPoint x="480" y="140" as="targetPoint" />
          </mxGeometry>
        </mxCell>
        <mxCell id="WIyWlLk6GJQsqaUBKTNV-7" value="La persona llena los datos de validación" style="rounded=1;whiteSpace=wrap;html=1;fontSize=12;glass=0;strokeWidth=1;shadow=0;" parent="WIyWlLk6GJQsqaUBKTNV-1" vertex="1">
          <mxGeometry x="420" y="200" width="120" height="40" as="geometry" />
        </mxCell>
        <mxCell id="q0biFwtXOT-HWgumpy52-3" value="No" style="edgeStyle=orthogonalEdgeStyle;rounded=0;orthogonalLoop=1;jettySize=auto;html=1;exitX=1.023;exitY=0.502;exitDx=0;exitDy=0;exitPerimeter=0;" edge="1" parent="WIyWlLk6GJQsqaUBKTNV-1" source="q0biFwtXOT-HWgumpy52-40" target="q0biFwtXOT-HWgumpy52-2">
          <mxGeometry x="-0.0309" y="10" relative="1" as="geometry">
            <mxPoint x="540" y="110" as="sourcePoint" />
            <mxPoint as="offset" />
          </mxGeometry>
        </mxCell>
        <mxCell id="q0biFwtXOT-HWgumpy52-7" value="Sí" style="edgeStyle=orthogonalEdgeStyle;rounded=0;orthogonalLoop=1;jettySize=auto;html=1;" edge="1" parent="WIyWlLk6GJQsqaUBKTNV-1" source="q0biFwtXOT-HWgumpy52-40" target="q0biFwtXOT-HWgumpy52-6">
          <mxGeometry y="-17" relative="1" as="geometry">
            <mxPoint x="480" y="80" as="sourcePoint" />
            <mxPoint as="offset" />
          </mxGeometry>
        </mxCell>
        <mxCell id="q0biFwtXOT-HWgumpy52-13" value="" style="edgeStyle=orthogonalEdgeStyle;rounded=0;orthogonalLoop=1;jettySize=auto;html=1;" edge="1" parent="WIyWlLk6GJQsqaUBKTNV-1" source="q0biFwtXOT-HWgumpy52-2" target="q0biFwtXOT-HWgumpy52-12">
          <mxGeometry relative="1" as="geometry" />
        </mxCell>
        <mxCell id="q0biFwtXOT-HWgumpy52-2" value="Se muestra un mensaje de error en los inputs" style="whiteSpace=wrap;html=1;rounded=1;glass=0;strokeWidth=1;shadow=0;" vertex="1" parent="WIyWlLk6GJQsqaUBKTNV-1">
          <mxGeometry x="637" y="80" width="120" height="60" as="geometry" />
        </mxCell>
        <mxCell id="q0biFwtXOT-HWgumpy52-9" value="Si" style="edgeStyle=orthogonalEdgeStyle;rounded=0;orthogonalLoop=1;jettySize=auto;html=1;" edge="1" parent="WIyWlLk6GJQsqaUBKTNV-1" source="q0biFwtXOT-HWgumpy52-6" target="q0biFwtXOT-HWgumpy52-8">
          <mxGeometry y="13" relative="1" as="geometry">
            <mxPoint as="offset" />
          </mxGeometry>
        </mxCell>
        <mxCell id="q0biFwtXOT-HWgumpy52-11" value="No" style="edgeStyle=orthogonalEdgeStyle;rounded=0;orthogonalLoop=1;jettySize=auto;html=1;" edge="1" parent="WIyWlLk6GJQsqaUBKTNV-1" source="q0biFwtXOT-HWgumpy52-6" target="q0biFwtXOT-HWgumpy52-10">
          <mxGeometry x="0.0805" y="10" relative="1" as="geometry">
            <mxPoint as="offset" />
          </mxGeometry>
        </mxCell>
        <mxCell id="q0biFwtXOT-HWgumpy52-6" value="El registro tiene éxito?" style="whiteSpace=wrap;html=1;rounded=1;glass=0;strokeWidth=1;shadow=0;" vertex="1" parent="WIyWlLk6GJQsqaUBKTNV-1">
          <mxGeometry x="420" y="-40" width="120" height="60" as="geometry" />
        </mxCell>
        <mxCell id="q0biFwtXOT-HWgumpy52-29" value="" style="edgeStyle=orthogonalEdgeStyle;rounded=0;orthogonalLoop=1;jettySize=auto;html=1;entryX=0;entryY=0.5;entryDx=0;entryDy=0;" edge="1" parent="WIyWlLk6GJQsqaUBKTNV-1" source="q0biFwtXOT-HWgumpy52-8" target="q0biFwtXOT-HWgumpy52-43">
          <mxGeometry relative="1" as="geometry">
            <mxPoint x="620" y="-170" as="targetPoint" />
          </mxGeometry>
        </mxCell>
        <mxCell id="q0biFwtXOT-HWgumpy52-8" value="Se crea un session token con expiración de 2 meses" style="whiteSpace=wrap;html=1;rounded=1;glass=0;strokeWidth=1;shadow=0;" vertex="1" parent="WIyWlLk6GJQsqaUBKTNV-1">
          <mxGeometry x="420" y="-200" width="120" height="60" as="geometry" />
        </mxCell>
        <mxCell id="q0biFwtXOT-HWgumpy52-21" value="" style="edgeStyle=orthogonalEdgeStyle;rounded=0;orthogonalLoop=1;jettySize=auto;html=1;" edge="1" parent="WIyWlLk6GJQsqaUBKTNV-1" source="q0biFwtXOT-HWgumpy52-10" target="q0biFwtXOT-HWgumpy52-20">
          <mxGeometry relative="1" as="geometry" />
        </mxCell>
        <mxCell id="q0biFwtXOT-HWgumpy52-10" value="Se muestra un mensaje de error general" style="whiteSpace=wrap;html=1;rounded=1;glass=0;strokeWidth=1;shadow=0;" vertex="1" parent="WIyWlLk6GJQsqaUBKTNV-1">
          <mxGeometry x="627" y="-40" width="120" height="60" as="geometry" />
        </mxCell>
        <mxCell id="q0biFwtXOT-HWgumpy52-15" value="" style="edgeStyle=orthogonalEdgeStyle;rounded=0;orthogonalLoop=1;jettySize=auto;html=1;entryX=0;entryY=0.5;entryDx=0;entryDy=0;" edge="1" parent="WIyWlLk6GJQsqaUBKTNV-1" target="q0biFwtXOT-HWgumpy52-42">
          <mxGeometry relative="1" as="geometry">
            <mxPoint x="957" y="112.51222222222235" as="sourcePoint" />
            <mxPoint x="1040" y="117.49" as="targetPoint" />
            <Array as="points">
              <mxPoint x="957" y="110" />
            </Array>
          </mxGeometry>
        </mxCell>
        <mxCell id="q0biFwtXOT-HWgumpy52-12" value="La persona reintenta el proceso" style="whiteSpace=wrap;html=1;rounded=1;glass=0;strokeWidth=1;shadow=0;" vertex="1" parent="WIyWlLk6GJQsqaUBKTNV-1">
          <mxGeometry x="837" y="80" width="120" height="60" as="geometry" />
        </mxCell>
        <mxCell id="q0biFwtXOT-HWgumpy52-18" value="Si" style="edgeStyle=orthogonalEdgeStyle;rounded=0;orthogonalLoop=1;jettySize=auto;html=1;entryX=0.5;entryY=1;entryDx=0;entryDy=0;exitX=0.5;exitY=1;exitDx=0;exitDy=0;" edge="1" parent="WIyWlLk6GJQsqaUBKTNV-1" source="q0biFwtXOT-HWgumpy52-42" target="q0biFwtXOT-HWgumpy52-2">
          <mxGeometry x="-0.0136" y="10" relative="1" as="geometry">
            <mxPoint x="1097" y="140" as="sourcePoint" />
            <Array as="points">
              <mxPoint x="697" y="160" />
            </Array>
            <mxPoint as="offset" />
          </mxGeometry>
        </mxCell>
        <mxCell id="q0biFwtXOT-HWgumpy52-19" value="No" style="edgeStyle=orthogonalEdgeStyle;rounded=0;orthogonalLoop=1;jettySize=auto;html=1;exitX=0.5;exitY=0;exitDx=0;exitDy=0;entryX=0.75;entryY=0;entryDx=0;entryDy=0;" edge="1" parent="WIyWlLk6GJQsqaUBKTNV-1" source="q0biFwtXOT-HWgumpy52-42" target="q0biFwtXOT-HWgumpy52-6">
          <mxGeometry x="0.0219" y="-10" relative="1" as="geometry">
            <mxPoint x="1097" y="80" as="sourcePoint" />
            <mxPoint as="offset" />
          </mxGeometry>
        </mxCell>
        <mxCell id="q0biFwtXOT-HWgumpy52-20" value="El mensaje de error es enviado a sentry (gestor de errores)" style="whiteSpace=wrap;html=1;rounded=1;glass=0;strokeWidth=1;shadow=0;" vertex="1" parent="WIyWlLk6GJQsqaUBKTNV-1">
          <mxGeometry x="827" y="-40" width="120" height="60" as="geometry" />
        </mxCell>
        <mxCell id="q0biFwtXOT-HWgumpy52-22" value="Se crea un token para la confirmación del correo usando el token de usuario" style="whiteSpace=wrap;html=1;rounded=1;glass=0;strokeWidth=1;shadow=0;" vertex="1" parent="WIyWlLk6GJQsqaUBKTNV-1">
          <mxGeometry x="420" y="-340" width="120" height="80" as="geometry" />
        </mxCell>
        <mxCell id="q0biFwtXOT-HWgumpy52-27" value="" style="edgeStyle=orthogonalEdgeStyle;rounded=0;orthogonalLoop=1;jettySize=auto;html=1;" edge="1" parent="WIyWlLk6GJQsqaUBKTNV-1" source="q0biFwtXOT-HWgumpy52-24" target="q0biFwtXOT-HWgumpy52-26">
          <mxGeometry relative="1" as="geometry" />
        </mxCell>
        <mxCell id="q0biFwtXOT-HWgumpy52-24" value="Se envía el correo con la url y el token como param" style="whiteSpace=wrap;html=1;rounded=1;glass=0;strokeWidth=1;shadow=0;" vertex="1" parent="WIyWlLk6GJQsqaUBKTNV-1">
          <mxGeometry x="420" y="-440" width="120" height="60" as="geometry" />
        </mxCell>
        <mxCell id="q0biFwtXOT-HWgumpy52-33" value="" style="edgeStyle=orthogonalEdgeStyle;rounded=0;orthogonalLoop=1;jettySize=auto;html=1;" edge="1" parent="WIyWlLk6GJQsqaUBKTNV-1" source="q0biFwtXOT-HWgumpy52-26" target="q0biFwtXOT-HWgumpy52-32">
          <mxGeometry relative="1" as="geometry" />
        </mxCell>
        <mxCell id="q0biFwtXOT-HWgumpy52-26" value="El usuario confirma su correo entrando al url enviado" style="whiteSpace=wrap;html=1;rounded=1;glass=0;strokeWidth=1;shadow=0;" vertex="1" parent="WIyWlLk6GJQsqaUBKTNV-1">
          <mxGeometry x="420" y="-560" width="120" height="60" as="geometry" />
        </mxCell>
        <mxCell id="q0biFwtXOT-HWgumpy52-31" value="Si" style="edgeStyle=orthogonalEdgeStyle;rounded=0;orthogonalLoop=1;jettySize=auto;html=1;entryX=1;entryY=0.5;entryDx=0;entryDy=0;exitX=0.5;exitY=0;exitDx=0;exitDy=0;" edge="1" parent="WIyWlLk6GJQsqaUBKTNV-1" source="q0biFwtXOT-HWgumpy52-43" target="q0biFwtXOT-HWgumpy52-22">
          <mxGeometry x="-0.4286" relative="1" as="geometry">
            <mxPoint x="680" y="-200" as="sourcePoint" />
            <Array as="points">
              <mxPoint x="724" y="-300" />
            </Array>
            <mxPoint as="offset" />
          </mxGeometry>
        </mxCell>
        <mxCell id="q0biFwtXOT-HWgumpy52-37" value="Si" style="edgeStyle=orthogonalEdgeStyle;rounded=0;orthogonalLoop=1;jettySize=auto;html=1;exitX=0.115;exitY=0.389;exitDx=0;exitDy=0;entryX=1;entryY=0.5;entryDx=0;entryDy=0;fillColor=#008a00;strokeColor=#005700;exitPerimeter=0;" edge="1" parent="WIyWlLk6GJQsqaUBKTNV-1" source="q0biFwtXOT-HWgumpy52-43" target="q0biFwtXOT-HWgumpy52-24">
          <mxGeometry x="-0.4582" relative="1" as="geometry">
            <mxPoint x="740" y="-170" as="sourcePoint" />
            <mxPoint as="offset" />
          </mxGeometry>
        </mxCell>
        <mxCell id="q0biFwtXOT-HWgumpy52-30" value="No" style="edgeStyle=orthogonalEdgeStyle;rounded=0;orthogonalLoop=1;jettySize=auto;html=1;entryX=0.5;entryY=0;entryDx=0;entryDy=0;exitX=0.5;exitY=1;exitDx=0;exitDy=0;" edge="1" parent="WIyWlLk6GJQsqaUBKTNV-1" source="q0biFwtXOT-HWgumpy52-43" target="q0biFwtXOT-HWgumpy52-10">
          <mxGeometry relative="1" as="geometry">
            <mxPoint x="680.0399999999997" y="-140" as="sourcePoint" />
            <Array as="points" />
          </mxGeometry>
        </mxCell>
        <mxCell id="q0biFwtXOT-HWgumpy52-35" value="Si" style="edgeStyle=orthogonalEdgeStyle;rounded=0;orthogonalLoop=1;jettySize=auto;html=1;" edge="1" parent="WIyWlLk6GJQsqaUBKTNV-1" source="q0biFwtXOT-HWgumpy52-32" target="q0biFwtXOT-HWgumpy52-34">
          <mxGeometry relative="1" as="geometry" />
        </mxCell>
        <mxCell id="q0biFwtXOT-HWgumpy52-32" value="El token de la URL es correcto y se ha validado?" style="whiteSpace=wrap;html=1;rounded=1;glass=0;strokeWidth=1;shadow=0;" vertex="1" parent="WIyWlLk6GJQsqaUBKTNV-1">
          <mxGeometry x="620" y="-560" width="120" height="60" as="geometry" />
        </mxCell>
        <mxCell id="q0biFwtXOT-HWgumpy52-34" value="Se cambia el status de la página a verificado, y el banner para verificar el correo desaparece" style="whiteSpace=wrap;html=1;rounded=1;glass=0;strokeWidth=1;shadow=0;" vertex="1" parent="WIyWlLk6GJQsqaUBKTNV-1">
          <mxGeometry x="822" y="-570" width="150" height="80" as="geometry" />
        </mxCell>
        <mxCell id="q0biFwtXOT-HWgumpy52-36" style="edgeStyle=orthogonalEdgeStyle;rounded=0;orthogonalLoop=1;jettySize=auto;html=1;exitX=0.5;exitY=1;exitDx=0;exitDy=0;entryX=0.5;entryY=0;entryDx=0;entryDy=0;fillColor=#008a00;strokeColor=#005700;" edge="1" parent="WIyWlLk6GJQsqaUBKTNV-1" target="q0biFwtXOT-HWgumpy52-43">
          <mxGeometry relative="1" as="geometry">
            <mxPoint x="490" y="-260" as="sourcePoint" />
            <mxPoint x="706.1130000000002" y="-197.99999999999977" as="targetPoint" />
            <Array as="points">
              <mxPoint x="490" y="-230" />
              <mxPoint x="723" y="-230" />
            </Array>
          </mxGeometry>
        </mxCell>
        <mxCell id="q0biFwtXOT-HWgumpy52-38" value="No" style="edgeStyle=orthogonalEdgeStyle;rounded=0;orthogonalLoop=1;jettySize=auto;html=1;entryX=1.007;entryY=0.338;entryDx=0;entryDy=0;entryPerimeter=0;exitX=0.684;exitY=1.028;exitDx=0;exitDy=0;exitPerimeter=0;" edge="1" parent="WIyWlLk6GJQsqaUBKTNV-1" source="q0biFwtXOT-HWgumpy52-32" target="q0biFwtXOT-HWgumpy52-10">
          <mxGeometry relative="1" as="geometry">
            <mxPoint x="720" y="-500" as="sourcePoint" />
            <Array as="points">
              <mxPoint x="702" y="-470" />
              <mxPoint x="810" y="-470" />
              <mxPoint x="810" y="-20" />
            </Array>
          </mxGeometry>
        </mxCell>
        <mxCell id="q0biFwtXOT-HWgumpy52-40" value="Los datos introducidos pasan la validación?" style="rhombus;whiteSpace=wrap;html=1;" vertex="1" parent="WIyWlLk6GJQsqaUBKTNV-1">
          <mxGeometry x="395" y="60" width="170" height="100" as="geometry" />
        </mxCell>
        <mxCell id="q0biFwtXOT-HWgumpy52-42" value="Los datos son incorrectos?" style="rhombus;whiteSpace=wrap;html=1;" vertex="1" parent="WIyWlLk6GJQsqaUBKTNV-1">
          <mxGeometry x="1040" y="65" width="100" height="90" as="geometry" />
        </mxCell>
        <mxCell id="q0biFwtXOT-HWgumpy52-43" value="El token tiene éxito creándose?" style="rhombus;whiteSpace=wrap;html=1;" vertex="1" parent="WIyWlLk6GJQsqaUBKTNV-1">
          <mxGeometry x="647" y="-210" width="153" height="80" as="geometry" />
        </mxCell>
        <mxCell id="q0biFwtXOT-HWgumpy52-45" value="Inicia sesión" style="rounded=1;whiteSpace=wrap;html=1;" vertex="1" parent="WIyWlLk6GJQsqaUBKTNV-1">
          <mxGeometry x="137.5" y="330" width="120" height="60" as="geometry" />
        </mxCell>
        <mxCell id="q0biFwtXOT-HWgumpy52-53" value="" style="edgeStyle=orthogonalEdgeStyle;rounded=0;orthogonalLoop=1;jettySize=auto;html=1;" edge="1" parent="WIyWlLk6GJQsqaUBKTNV-1" source="q0biFwtXOT-HWgumpy52-46" target="q0biFwtXOT-HWgumpy52-52">
          <mxGeometry relative="1" as="geometry" />
        </mxCell>
        <mxCell id="q0biFwtXOT-HWgumpy52-46" value="Los datos introducidos pasan la validación?" style="rhombus;whiteSpace=wrap;html=1;" vertex="1" parent="WIyWlLk6GJQsqaUBKTNV-1">
          <mxGeometry x="115" y="440" width="170" height="80" as="geometry" />
        </mxCell>
        <mxCell id="q0biFwtXOT-HWgumpy52-47" style="edgeStyle=orthogonalEdgeStyle;rounded=0;orthogonalLoop=1;jettySize=auto;html=1;exitX=0.5;exitY=1;exitDx=0;exitDy=0;entryX=0.486;entryY=0.025;entryDx=0;entryDy=0;entryPerimeter=0;" edge="1" parent="WIyWlLk6GJQsqaUBKTNV-1" source="q0biFwtXOT-HWgumpy52-45" target="q0biFwtXOT-HWgumpy52-46">
          <mxGeometry relative="1" as="geometry" />
        </mxCell>
        <mxCell id="q0biFwtXOT-HWgumpy52-55" value="" style="edgeStyle=orthogonalEdgeStyle;rounded=0;orthogonalLoop=1;jettySize=auto;html=1;" edge="1" parent="WIyWlLk6GJQsqaUBKTNV-1" source="q0biFwtXOT-HWgumpy52-52" target="q0biFwtXOT-HWgumpy52-54">
          <mxGeometry relative="1" as="geometry" />
        </mxCell>
        <mxCell id="q0biFwtXOT-HWgumpy52-52" value="Se muestra un mensaje de error en los inputs" style="rounded=1;whiteSpace=wrap;html=1;" vertex="1" parent="WIyWlLk6GJQsqaUBKTNV-1">
          <mxGeometry x="390" y="450" width="120" height="60" as="geometry" />
        </mxCell>
        <mxCell id="q0biFwtXOT-HWgumpy52-57" value="" style="edgeStyle=orthogonalEdgeStyle;rounded=0;orthogonalLoop=1;jettySize=auto;html=1;" edge="1" parent="WIyWlLk6GJQsqaUBKTNV-1" source="q0biFwtXOT-HWgumpy52-54" target="q0biFwtXOT-HWgumpy52-56">
          <mxGeometry relative="1" as="geometry" />
        </mxCell>
        <mxCell id="q0biFwtXOT-HWgumpy52-54" value="La persona reintenta el proceso" style="whiteSpace=wrap;html=1;rounded=1;" vertex="1" parent="WIyWlLk6GJQsqaUBKTNV-1">
          <mxGeometry x="590" y="450" width="120" height="60" as="geometry" />
        </mxCell>
        <mxCell id="q0biFwtXOT-HWgumpy52-58" value="No" style="edgeStyle=orthogonalEdgeStyle;rounded=0;orthogonalLoop=1;jettySize=auto;html=1;exitX=0.5;exitY=1;exitDx=0;exitDy=0;entryX=0.5;entryY=1;entryDx=0;entryDy=0;" edge="1" parent="WIyWlLk6GJQsqaUBKTNV-1" source="q0biFwtXOT-HWgumpy52-56" target="q0biFwtXOT-HWgumpy52-52">
          <mxGeometry relative="1" as="geometry" />
        </mxCell>
        <mxCell id="q0biFwtXOT-HWgumpy52-56" value="Los nuevos datos son correctos?" style="rhombus;whiteSpace=wrap;html=1;rounded=1;" vertex="1" parent="WIyWlLk6GJQsqaUBKTNV-1">
          <mxGeometry x="807" y="430" width="140" height="100" as="geometry" />
        </mxCell>
        <mxCell id="q0biFwtXOT-HWgumpy52-63" value="" style="edgeStyle=orthogonalEdgeStyle;rounded=0;orthogonalLoop=1;jettySize=auto;html=1;" edge="1" parent="WIyWlLk6GJQsqaUBKTNV-1" source="q0biFwtXOT-HWgumpy52-59" target="q0biFwtXOT-HWgumpy52-62">
          <mxGeometry relative="1" as="geometry" />
        </mxCell>
        <mxCell id="q0biFwtXOT-HWgumpy52-59" value="Se crea una session con expiración de 2 meses" style="rounded=1;whiteSpace=wrap;html=1;" vertex="1" parent="WIyWlLk6GJQsqaUBKTNV-1">
          <mxGeometry x="137.5" y="610" width="120" height="60" as="geometry" />
        </mxCell>
        <mxCell id="q0biFwtXOT-HWgumpy52-61" value="Sí" style="edgeStyle=orthogonalEdgeStyle;rounded=0;orthogonalLoop=1;jettySize=auto;html=1;exitX=0.5;exitY=1;exitDx=0;exitDy=0;entryX=0.526;entryY=-0.004;entryDx=0;entryDy=0;entryPerimeter=0;" edge="1" parent="WIyWlLk6GJQsqaUBKTNV-1" source="q0biFwtXOT-HWgumpy52-46" target="q0biFwtXOT-HWgumpy52-59">
          <mxGeometry relative="1" as="geometry" />
        </mxCell>
        <mxCell id="q0biFwtXOT-HWgumpy52-62" value="Se envía un correo avisando al usuario de una nueva sesión" style="whiteSpace=wrap;html=1;rounded=1;" vertex="1" parent="WIyWlLk6GJQsqaUBKTNV-1">
          <mxGeometry x="137.5" y="750" width="120" height="60" as="geometry" />
        </mxCell>
      </root>
    </mxGraphModel>
  </diagram>
</mxfile>
